<svg width="384" height="32" viewBox="0 0 384 32" fill="none" xmlns="http://www.w3.org/2000/svg">
<path fill-rule="evenodd" clip-rule="evenodd" d="M0 0H10.9782C14.3585 0 17.2901 0.83482 19.37 2.87823C21.3776 4.83791 22.3178 7.39531 22.3178 10.3314C22.3178 13.2695 21.3766 15.8302 19.3731 17.8006C17.2931 19.8462 14.3601 20.6819 10.9782 20.6819H6.26318V32H0V0ZM6.26318 14.5709H10.9782C13.4212 14.5709 14.5128 14.0081 14.966 13.5008C15.6397 12.7479 16.0356 11.7546 16.0356 10.3505C16.0356 8.92878 15.6381 7.94332 14.9745 7.20948L14.9584 7.1917C14.5039 6.67763 13.4156 6.11101 10.9782 6.11101H6.26318V14.5709Z" fill="white"/>
<path fill-rule="evenodd" clip-rule="evenodd" d="M35.073 0H40.3375L52.9627 32H46.5027L43.4706 24.1167H31.7567L28.7377 32H22.4478L35.073 0ZM33.9525 18.383L41.2618 18.3738L37.601 8.85575L33.9525 18.383Z" fill="white"/>
<path fill-rule="evenodd" clip-rule="evenodd" d="M52.1992 0H58.2743L67.3552 23.5906L76.3966 0H82.3575L69.8196 32H64.7371L52.1992 0Z" fill="white"/>
<path fill-rule="evenodd" clip-rule="evenodd" d="M86.9531 0H107.733V5.21022H92.3208V12.952H105.647V18.1425H92.3208V26.7898H107.95V32H86.9531V0Z" fill="white"/>
<path fill-rule="evenodd" clip-rule="evenodd" d="M118.976 0H144.663V4.89586H134.347V32H129.292V4.89586H118.976V0Z" fill="white"/>
<path fill-rule="evenodd" clip-rule="evenodd" d="M148.788 0H153.523V13.2596H168.96V0H173.715V32H168.96V17.8135H153.523V32H148.788V0Z" fill="white"/>
<path fill-rule="evenodd" clip-rule="evenodd" d="M180.877 0H201.252V4.24449H185.284V13.4189H199.091V17.643H185.284V27.7555H201.477V32H180.877V0Z" fill="white"/>
<path fill-rule="evenodd" clip-rule="evenodd" d="M237.265 21.4164C236.969 24.4628 235.858 27.0107 233.9 28.9982C231.883 31.0451 229.019 32 225.462 32C221.761 32 218.641 30.6488 216.168 27.9616L216.165 27.9577C213.678 25.225 212.503 21.3768 212.503 16.5564V15.4436C212.503 10.6601 213.679 6.8277 216.163 4.08383C218.635 1.36909 221.758 0 225.462 0C229.019 0 231.869 0.961758 233.849 3.03038C235.756 5.0106 236.883 7.53825 237.262 10.5575L237.265 10.581L237.388 11.8097H233.518L233.321 10.824L233.316 10.7896C233.088 8.94804 232.363 7.30949 231.128 5.85571C230.016 4.54785 228.201 3.80109 225.462 3.80109C222.822 3.80109 220.701 4.78702 219.026 6.78483C217.358 8.77517 216.463 11.6208 216.463 15.4436V16.5564C216.463 20.5366 217.363 23.4089 219.016 25.3226C220.687 27.2431 222.81 28.1989 225.462 28.1989C228.246 28.1989 230.089 27.4555 231.212 26.159C232.453 24.7124 233.154 23.0783 233.334 21.235L233.438 20.1903H237.388L237.265 21.4164Z" fill="white"/>
<path fill-rule="evenodd" clip-rule="evenodd" d="M242.853 0H246.581V13.7493H263.77V0H267.519V32H263.77V17.2895H246.581V32H242.853V0Z" fill="white"/>
<path fill-rule="evenodd" clip-rule="evenodd" d="M284.008 0H287.636L300.261 32H296.581L293.248 23.3352H278.193L274.874 32H271.383L284.008 0ZM279.39 20.2083L292.039 20.1923L286.657 6.19766C286.391 5.52692 286.139 4.8956 285.901 4.30912L285.895 4.29346C285.832 4.12491 285.771 3.95626 285.71 3.78768C285.647 3.95818 285.582 4.12863 285.515 4.29903C285.289 4.90659 285.035 5.54081 284.754 6.2016L279.39 20.2083Z" fill="white"/>
<path fill-rule="evenodd" clip-rule="evenodd" d="M304.269 0H307.698L325.061 26.5946C325.373 27.0628 325.639 27.4861 325.854 27.8605C325.832 27.4223 325.821 27.0107 325.821 26.6259V0H328.75V32H325.407L307.784 5.14584C307.557 4.79382 307.342 4.45228 307.141 4.12652C307.165 4.56467 307.176 4.98059 307.176 5.37411V32H304.269V0Z" fill="white"/>
<path fill-rule="evenodd" clip-rule="evenodd" d="M337.886 4.04674C340.328 1.35116 343.362 0 346.976 0C350.62 0 353.433 0.882848 355.386 2.67863C357.329 4.45109 358.446 6.7484 358.743 9.55792L358.785 9.98359H356.239L356.162 9.60182C355.932 7.65949 355.105 5.97629 353.676 4.54701C352.282 3.14014 350.071 2.41545 346.997 2.41545C344.038 2.41545 341.611 3.52372 339.703 5.74532C337.799 7.96264 336.832 11.1763 336.832 15.4162V16.5838C336.832 20.8237 337.799 24.0374 339.703 26.2547C341.605 28.4687 344.284 29.5846 347.768 29.5846C349.631 29.5846 351.23 29.3775 352.569 28.9677C353.892 28.5667 355.138 27.93 356.308 27.0561V18.8652H347.092V16.4915H358.786V28.0935L358.724 28.1516C357.646 29.1728 356.2 30.0667 354.393 30.8373C352.582 31.6152 350.372 32 347.768 32C343.663 32 340.369 30.662 337.908 27.9749C335.461 25.2729 334.25 21.4659 334.25 16.5838V15.4162C334.25 10.5345 335.453 6.73507 337.886 4.04674Z" fill="white"/>
<path d="M364.286 32V0H383.758V2.08791H366.549V14.4615H381.428V16.5275H366.549V29.9121H384V32H364.286Z" fill="white"/>
</svg>
