<svg width="100" height="100" viewBox="0 0 100 100" fill="none" xmlns="http://www.w3.org/2000/svg">
<g clip-path="url(#clip0_28_1196)">
<mask id="mask0_28_1196" style="mask-type:alpha" maskUnits="userSpaceOnUse" x="0" y="0" width="100" height="100">
<rect width="100" height="100" fill="black"/>
</mask>
<g mask="url(#mask0_28_1196)">
<path fill-rule="evenodd" clip-rule="evenodd" d="M98.9418 100L98.9418 0L100 0L100 100H98.9418Z" fill="black"/>
<path fill-rule="evenodd" clip-rule="evenodd" d="M95.819 100L95.819 0L97.9353 0L97.9353 100H95.819Z" fill="black"/>
<path fill-rule="evenodd" clip-rule="evenodd" d="M91.6587 100L91.6587 0L94.8332 0L94.8332 100H91.6587Z" fill="black"/>
<path fill-rule="evenodd" clip-rule="evenodd" d="M86.4618 100L86.4619 0L90.6945 0L90.6945 100H86.4618Z" fill="black"/>
<path fill-rule="evenodd" clip-rule="evenodd" d="M80.2265 100L80.2265 0L85.5174 0L85.5174 100H80.2265Z" fill="black"/>
<path fill-rule="evenodd" clip-rule="evenodd" d="M72.9547 100L72.9547 0L79.3037 0L79.3037 100H72.9547Z" fill="black"/>
<path fill-rule="evenodd" clip-rule="evenodd" d="M64.6444 100L64.6444 0L72.0516 0L72.0516 100H64.6444Z" fill="black"/>
<path fill-rule="evenodd" clip-rule="evenodd" d="M55.2976 100L55.2976 0L63.7629 0V100H55.2976Z" fill="black"/>
<path fill-rule="evenodd" clip-rule="evenodd" d="M44.9133 100L44.9133 0L54.4368 0L54.4368 100H44.9133Z" fill="black"/>
<path fill-rule="evenodd" clip-rule="evenodd" d="M33.4915 100L33.4915 0L44.0731 0L44.0731 100H33.4915Z" fill="black"/>
<path fill-rule="evenodd" clip-rule="evenodd" d="M21.0311 100L21.0311 0L32.671 0L32.671 100H21.0311Z" fill="black"/>
<path fill-rule="evenodd" clip-rule="evenodd" d="M7.53431 100L7.53431 0L20.2323 0L20.2323 100H7.53431Z" fill="black"/>
<path fill-rule="evenodd" clip-rule="evenodd" d="M-7 100L-7 0L6.75619 0L6.75618 100H-7Z" fill="black"/>
</g>
<mask id="mask1_28_1196" style="mask-type:alpha" maskUnits="userSpaceOnUse" x="0" y="0" width="100" height="100">
<path d="M0 16C0 7.16345 7.16344 0 16 0H84C92.8366 0 100 7.16344 100 16V84C100 92.8366 92.8366 100 84 100H16C7.16345 100 0 92.8366 0 84V16Z" fill="black"/>
</mask>
<g mask="url(#mask1_28_1196)">
<path fill-rule="evenodd" clip-rule="evenodd" d="M98.9418 100L98.9418 0L100 0L100 100H98.9418Z" fill="black"/>
<path fill-rule="evenodd" clip-rule="evenodd" d="M95.819 100L95.819 0L97.9353 0L97.9353 100H95.819Z" fill="black"/>
<path fill-rule="evenodd" clip-rule="evenodd" d="M91.6587 100L91.6587 0L94.8332 0L94.8332 100H91.6587Z" fill="black"/>
<path fill-rule="evenodd" clip-rule="evenodd" d="M86.4618 100L86.4619 0L90.6945 0L90.6945 100H86.4618Z" fill="black"/>
<path fill-rule="evenodd" clip-rule="evenodd" d="M80.2265 100L80.2265 0L85.5174 0L85.5174 100H80.2265Z" fill="black"/>
<path fill-rule="evenodd" clip-rule="evenodd" d="M72.9547 100L72.9547 0L79.3037 0L79.3037 100H72.9547Z" fill="black"/>
<path fill-rule="evenodd" clip-rule="evenodd" d="M64.6444 100L64.6444 0L72.0516 0L72.0516 100H64.6444Z" fill="black"/>
<path fill-rule="evenodd" clip-rule="evenodd" d="M55.2976 100L55.2976 0L63.7629 0V100H55.2976Z" fill="black"/>
<path fill-rule="evenodd" clip-rule="evenodd" d="M44.9133 100L44.9133 0L54.4368 0L54.4368 100H44.9133Z" fill="black"/>
<path fill-rule="evenodd" clip-rule="evenodd" d="M33.4915 100L33.4915 0L44.0731 0L44.0731 100H33.4915Z" fill="black"/>
<path fill-rule="evenodd" clip-rule="evenodd" d="M21.0311 100L21.0311 0L32.671 0L32.671 100H21.0311Z" fill="black"/>
<path fill-rule="evenodd" clip-rule="evenodd" d="M7.53431 100L7.53431 0L20.2323 0L20.2323 100H7.53431Z" fill="black"/>
<path fill-rule="evenodd" clip-rule="evenodd" d="M-7 100L-7 0L6.75619 0L6.75618 100H-7Z" fill="black"/>
</g>
<mask id="mask2_28_1196" style="mask-type:alpha" maskUnits="userSpaceOnUse" x="0" y="0" width="100" height="100">
<circle cx="50" cy="50" r="50" fill="black"/>
</mask>
<g mask="url(#mask2_28_1196)">
<path fill-rule="evenodd" clip-rule="evenodd" d="M98.9418 100L98.9418 0L100 0L100 100H98.9418Z" fill="black"/>
<path fill-rule="evenodd" clip-rule="evenodd" d="M95.819 100L95.819 0L97.9353 0L97.9353 100H95.819Z" fill="black"/>
<path fill-rule="evenodd" clip-rule="evenodd" d="M91.6587 100L91.6587 0L94.8332 0L94.8332 100H91.6587Z" fill="black"/>
<path fill-rule="evenodd" clip-rule="evenodd" d="M86.4618 100L86.4619 0L90.6945 0L90.6945 100H86.4618Z" fill="black"/>
<path fill-rule="evenodd" clip-rule="evenodd" d="M80.2265 100L80.2265 0L85.5174 0L85.5174 100H80.2265Z" fill="black"/>
<path fill-rule="evenodd" clip-rule="evenodd" d="M72.9547 100L72.9547 0L79.3037 0L79.3037 100H72.9547Z" fill="black"/>
<path fill-rule="evenodd" clip-rule="evenodd" d="M64.6444 100L64.6444 0L72.0516 0L72.0516 100H64.6444Z" fill="black"/>
<path fill-rule="evenodd" clip-rule="evenodd" d="M55.2976 100L55.2976 0L63.7629 0V100H55.2976Z" fill="black"/>
<path fill-rule="evenodd" clip-rule="evenodd" d="M44.9133 100L44.9133 0L54.4368 0L54.4368 100H44.9133Z" fill="black"/>
<path fill-rule="evenodd" clip-rule="evenodd" d="M33.4915 100L33.4915 0L44.0731 0L44.0731 100H33.4915Z" fill="black"/>
<path fill-rule="evenodd" clip-rule="evenodd" d="M21.0311 100L21.0311 0L32.671 0L32.671 100H21.0311Z" fill="black"/>
<path fill-rule="evenodd" clip-rule="evenodd" d="M7.53431 100L7.53431 0L20.2323 0L20.2323 100H7.53431Z" fill="black"/>
<path fill-rule="evenodd" clip-rule="evenodd" d="M-7 100L-7 0L6.75619 0L6.75618 100H-7Z" fill="black"/>
</g>
<path fill-rule="evenodd" clip-rule="evenodd" d="M32.6672 20H53.8191C60.3319 20 65.9804 21.5653 69.9877 25.3967C73.8558 29.0711 75.6672 33.8662 75.6672 39.3714C75.6672 44.8803 73.8539 49.6816 69.9937 53.3761C65.9861 57.2117 60.3351 58.7785 53.8191 58.7785H44.7346V80H32.6672V20ZM44.7346 47.3204H53.8191C58.526 47.3204 60.6292 46.2652 61.5025 45.3141C62.8005 43.9023 63.5632 42.0399 63.5632 39.4071C63.5632 36.7415 62.7974 34.8937 61.5188 33.5178L61.4879 33.4844C60.6121 32.5205 58.5153 31.4581 53.8191 31.4581H44.7346V47.3204Z" fill="white"/>
</g>
<defs>
<clipPath id="clip0_28_1196">
<rect width="100" height="100" fill="white"/>
</clipPath>
</defs>
</svg>
